<?xml version="1.0" encoding="UTF-8" standalone="no"?>
<svg xmlns="http://www.w3.org/2000/svg" xml:space="preserve" width="600" height="600" overflow="visible">
  <path d="M0 50C0 22.3857422 22.3852539 0 50 0h500c27.6142578 0 50 22.3857422 50 50v500c0 27.6152344-22.3857422 50-50 50H50c-27.6147461 0-50-22.3847656-50-50V50z"/>
  <g clip-rule="evenodd">
    <path fill="#FFF" fill-rule="evenodd" d="M300 10.0029297c23.5644531 20.0751953 54.1171875 32.1914063 87.5 32.1914063S451.4355469 30.0751953 475 10l115 115c-21.1621094 30.0810547-33.5878906 66.7539063-33.5878906 106.3261719 0 28.4638672 6.4267578 55.4248047 17.9101563 79.5126953C584.2441406 331.6640625 590 355.3945313 590 380c0 88.3671875-71.6328125 160-160 160h-25.1132813C362.5419922 540 324.7509766 559.4951172 300 590c-24.7514648-30.5048828-62.5419922-50-104.8867188-50h-25.1137695c-88.3666992 0-160-71.6328125-160-160 0-24.6054688 5.7563477-48.3359375 15.6787109-69.1611328 11.4824219-24.0878906 17.9101563-51.0488281 17.9101563-79.5126953C43.5883789 191.7539063 31.1616211 155.0810547 10 125L125 10c23.5644531 20.0751953 54.1166992 32.1943359 87.5 32.1943359 33.3828125 0 63.9355469-12.1162109 87.5-32.1914062z"/>
    <path fill="none" stroke="#000" stroke-linecap="round" stroke-linejoin="round" stroke-miterlimit="3.863693" d="M300 10.0029297c23.5644531 20.0751953 54.1171875 32.1914063 87.5 32.1914063S451.4355469 30.0751953 475 10l115 115c-21.1621094 30.0810547-33.5878906 66.7539063-33.5878906 106.3261719 0 28.4638672 6.4267578 55.4248047 17.9101563 79.5126953C584.2441406 331.6640625 590 355.3945313 590 380c0 88.3671875-71.6328125 160-160 160h-25.1132813C362.5419922 540 324.7509766 559.4951172 300 590c-24.7514648-30.5048828-62.5419922-50-104.8867188-50h-25.1137695c-88.3666992 0-160-71.6328125-160-160 0-24.6054688 5.7563477-48.3359375 15.6787109-69.1611328 11.4824219-24.0878906 17.9101563-51.0488281 17.9101563-79.5126953C43.5883789 191.7539063 31.1616211 155.0810547 10 125L125 10c23.5644531 20.0751953 54.1166992 32.1943359 87.5 32.1943359 33.3828125 0 63.9355469-12.1162109 87.5-32.1914062z"/>
  </g>
  <path d="M128.35114 433.44724V196.95248h-18.05665v-31.38916c8.31092-.57712 14.97499-2.58487 19.99222-6.02325 5.01714-3.43783 9.10044-8.1707 12.24991-14.19861h27.53113v288.10578h-41.71661zM380.5011 332.40353c-.00018 15.18726-2.29444 29.23058-6.88278 42.12998-4.58869 12.89952-10.89626 24.07993-18.92273 33.54126-8.02678 9.46138-17.48595 16.91498-28.37754 22.36084-10.89183 5.44586-22.78961 8.16879-35.69336 8.16879-12.89517 0-25.2916-2.14991-37.18933-6.44974-11.89782-4.29982-23.14822-10.6052-33.75122-18.91617l27.08496-29.23706c7.16487 4.87289 13.75895 8.45535 19.78226 10.74738 6.02319 2.29211 12.61726 3.43815 19.78226 3.43811 7.73347.00004 14.89838-1.64903 21.49475-4.9472 6.59616-3.2981 12.25854-7.9566 16.98715-13.97553 4.72837-6.01882 8.45517-13.18373 11.18042-21.49475 2.72498-8.31087 4.08754-17.48353 4.08768-27.51801-.00014-15.77319-3.58478-28.10182-10.75394-36.98593-7.16941-8.88382-16.77293-13.3258-28.81058-13.32596-12.61523.00016-24.07996 4.72865-34.39422 14.18549l-39.56452-5.15717 7.30927-143.6264h135.45105v40.4306h-97.18567l-3.00507 60.62622c7.16485-2.58058 12.96939-4.22964 17.41364-4.9472 4.44408-.71717 9.39128-1.07586 14.84161-1.07605 11.74896.00019 22.49632 2.22228 32.24213 6.66626 9.74555 4.44436 18.05868 10.75193 24.93942 18.92273 6.88043 8.17114 12.2563 17.84683 16.12763 29.0271 3.87098 11.18055 5.80655 23.65134 5.80673 37.41241zm61.11175 101.04371V196.95248h-18.05664v-31.38916c8.31092-.57712 14.97499-2.58487 19.99222-6.02325 5.01714-3.43783 9.10044-8.1707 12.24991-14.19861h27.53113v288.10578h-41.71662z" font-family="Roadgeek 2005 Series D" font-size="430" font-weight="400" style="text-align:center;line-height:125%" text-anchor="middle"/>
</svg>